<?xml version="1.0" encoding="utf-8"?>
<!DOCTYPE svg PUBLIC "-//W3C//DTD SVG 20010904//EN" "http://www.w3.org/TR/2001/REC-SVG-20010904/DTD/svg10.dtd">
<svg version="1.0" xmlns="http://www.w3.org/2000/svg" xmlns:xlink="http://www.w3.org/1999/xlink" viewBox="0 0 60 60">
	<defs>
		<style type="text/css">.sprite { display: none; } .sprite:target { display: inline; } .grey{ fill: #999; stroke: none; } .blue{ fill: #0071b9; stroke: none; } .white{ fill: white; stroke: none;} .reverseX{ transform:scale(-1,1):}</style>
		<symbol id="drop-ico-def" viewBox="-280 211.3 104.7 138.7">
			<g>
				<defs>
					<rect id="SVGID_1_" x="-280" y="211.3" width="398.6" height="138.7"/>
				</defs>
				<clipPath id="SVGID_2_">
					<use xlink:href="#SVGID_1_" style="overflow:visible;"/>
				</clipPath>
				<path d="M-231.7,232.2c2.2-2.2,4.2-2.1,4.2-2.1s2.2-0.1,4.4,2.3c9.3,10,24.5,29.2,30.9,48.2c-2.9,1-5.8,2.8-8.5,5.5 c-4.5,4.5-7.7,4.5-12.1,0c-8.5-8.5-18.3-8.5-26.8,0c-4.5,4.5-7.7,4.5-12.1,0c-3.7-3.7-7.6-5.8-11.5-6.3 C-258.7,265.8-248.1,249.9-231.7,232.2 M-176.5,287.8c-5.5-34.6-39.9-68-41.3-69.4l-4.7-4.6l-0.1-0.1c-2.5-2.4-5-2.4-5-2.4 s-2.5-0.1-5,2.4l-0.1,0.1l-4.7,4.9c-26.5,27.4-40.7,52-42.2,73c-0.3,2.3-0.4,4.3-0.4,6.3c0,28.6,23.4,51.9,52.2,51.9 s52.2-23.3,52.2-51.9C-175.5,294.5-175.9,291.1-176.5,287.8"/>
			</g>
		</symbol>
		<symbol id="phone-ico-def">
			<g transform="translate(0.2,0.2) scale(0.171,0.171)">
				<path d="M340.273,275.083l-53.755-53.761c-10.707-10.664-28.438-10.34-39.518,0.744l-27.082,27.076 c-1.711-0.943-3.482-1.928-5.344-2.973c-17.102-9.476-40.509-22.464-65.14-47.113c-24.704-24.701-37.704-48.144-47.209-65.257 c-1.003-1.813-1.964-3.561-2.913-5.221l18.176-18.149l8.936-8.947c11.097-11.1,11.403-28.826,0.721-39.521L73.39,8.194 C62.708-2.486,44.969-2.162,33.872,8.938l-15.15,15.237l0.414,0.411c-5.08,6.482-9.325,13.958-12.484,22.02 C3.74,54.28,1.927,61.603,1.098,68.941C-6,127.785,20.89,181.564,93.866,254.541c100.875,100.868,182.167,93.248,185.674,92.876 c7.638-0.913,14.958-2.738,22.397-5.627c7.992-3.122,15.463-7.361,21.941-12.43l0.331,0.294l15.348-15.029 C350.631,303.527,350.95,285.795,340.273,275.083z"/>
			</g>
		</symbol>
		<symbol id="arrow-down-ico-def">
			<g transform="translate(0,0) scale(0.2,0.2)">
				<path d="M286.935,69.377c-3.614-3.617-7.898-5.424-12.848-5.424H18.274c-4.952,0-9.233,1.807-12.85,5.424 C1.807,72.998,0,77.279,0,82.228c0,4.948,1.807,9.229,5.424,12.847l127.907,127.907c3.621,3.617,7.902,5.428,12.85,5.428 s9.233-1.811,12.847-5.428L286.935,95.074c3.613-3.617,5.427-7.898,5.427-12.847C292.362,77.279,290.548,72.998,286.935,69.377z"/>
			</g>
		</symbol>
		<symbol id="location-ico-def">
			<g transform="translate(0,0) scale(0.1368,0.1368)">
				<path d="M322.621,42.825C294.073,14.272,259.619,0,219.268,0c-40.353,0-74.803,14.275-103.353,42.825 c-28.549,28.549-42.825,63-42.825,103.353c0,20.749,3.14,37.782,9.419,51.106l104.21,220.986 c2.856,6.276,7.283,11.225,13.278,14.838c5.996,3.617,12.419,5.428,19.273,5.428c6.852,0,13.278-1.811,19.273-5.428 c5.996-3.613,10.513-8.562,13.559-14.838l103.918-220.986c6.282-13.324,9.424-30.358,9.424-51.106 C365.449,105.825,351.176,71.378,322.621,42.825z M270.942,197.855c-14.273,14.272-31.497,21.411-51.674,21.411 s-37.401-7.139-51.678-21.411c-14.275-14.277-21.414-31.501-21.414-51.678c0-20.175,7.139-37.402,21.414-51.675 c14.277-14.275,31.504-21.414,51.678-21.414c20.177,0,37.401,7.139,51.674,21.414c14.274,14.272,21.413,31.5,21.413,51.675 C292.355,166.352,285.217,183.575,270.942,197.855z"/>
			</g>
		</symbol>
		<symbol id="map-ico-def">
			<g transform="translate(0,0) scale(0.1275,0.1275)">
				<path d="m470,310.715v-151.539c0-3.32-2.184-6.246-5.366-7.19l-70.113-20.802c5.427-13.275 8.81-26.451 8.81-38.684 0-51.004-41.495-92.5-92.5-92.5s-92.5,41.495-92.5,92.5c0,12.233 3.383,25.409 8.81,38.684l-67.979,20.169-149.529-44.368c-2.268-0.671-4.722-0.235-6.619,1.18s-3.014,3.644-3.014,6.011v151.728c0,0.018 0,0.037 0,0.055v151.541c0,3.32 2.183,6.246 5.367,7.19l151.549,44.967c0.044,0.013 0.113,0.033 0.113,0.033 0.024,0.007 0.049,0.009 0.073,0.016 0.279,0.08 0.565,0.141 0.857,0.188 0.078,0.013 0.156,0.026 0.235,0.036 0.314,0.041 0.632,0.068 0.956,0.069 0.348,0 0.667-0.028 0.982-0.069 0.078-0.01 0.155-0.023 0.233-0.036 0.292-0.047 0.579-0.109 0.859-0.188 0.024-0.007 0.049-0.009 0.073-0.016l.069-.021c0.044-0.013 146.427-43.445 146.427-43.445 0.93,0.413 1.956,0.647 3.039,0.647s2.11-0.234 3.039-0.647l146.496,43.465c0.701,0.208 1.419,0.31 2.134,0.31 1.598,0 3.175-0.511 4.486-1.49 1.896-1.416 3.014-3.644 3.014-6.01v-151.724c-0.001-0.02-0.001-0.04-0.001-0.06zm-15-145.941v136.016l-136.669-40.55v-21.332c9.78-10.071 48.188-50.995 69.876-93.951l66.793,19.817zm-144.169-149.774c42.733,0 77.5,34.766 77.5,77.5 0,12.181-4.075,25.748-10.412,39.485-0.314,0.502-0.572,1.047-0.765,1.633-18.072,38.149-53.029,77.25-66.325,91.396-13.288-14.131-48.213-53.178-66.292-91.314-0.203-0.642-0.486-1.237-0.833-1.78-6.314-13.712-10.373-27.254-10.373-39.421-8.52651e-14-42.733 34.767-77.499 77.5-77.499zm-7.5,223.907v21.332l-136.669,40.55v-136.015l66.793-19.817c21.689,42.956 60.096,83.88 69.876,93.95zm-288.331,36.979l51.818,15.375c0.712,0.211 1.43,0.312 2.136,0.312 3.235,0 6.22-2.109 7.187-5.369 1.179-3.971-1.085-8.145-5.057-9.323l-56.084-16.641v-136.016l136.662,40.55v136.016l-51.817-15.375c-3.97-1.18-8.145,1.085-9.323,5.057-1.179,3.971 1.085,8.145 5.057,9.323l56.084,16.641v136.016l-136.663-40.55v-136.016zm303.331,136.016v-54.297c0-4.142-3.357-7.5-7.5-7.5s-7.5,3.358-7.5,7.5v54.297l-136.669,40.549v-136.015l136.669-40.55v51.719c0,4.142 3.357,7.5 7.5,7.5s7.5-3.358 7.5-7.5v-51.719l136.669,40.55v136.016l-136.669-40.55z"/>
				<path d="m310.831,145c28.948,0 52.5-23.551 52.5-52.5 0-28.948-23.552-52.5-52.5-52.5s-52.5,23.551-52.5,52.5c0,28.948 23.552,52.5 52.5,52.5zm0-90c20.678,0 37.5,16.822 37.5,37.5 0,20.678-16.822,37.5-37.5,37.5s-37.5-16.822-37.5-37.5c0-20.678 16.822-37.5 37.5-37.5z"/>
			</g>
		</symbol>
		<symbol id="web-ico-def">
			<g transform="translate(0,0) scale(1.035,1.035)">
				<path d="M50.688,48.222C55.232,43.101,58,36.369,58,29c0-7.667-2.996-14.643-7.872-19.834c0,0,0-0.001,0-0.001 c-0.004-0.006-0.01-0.008-0.013-0.013c-5.079-5.399-12.195-8.855-20.11-9.126l-0.001-0.001L29.439,0.01C29.293,0.005,29.147,0,29,0 s-0.293,0.005-0.439,0.01l-0.563,0.015l-0.001,0.001c-7.915,0.271-15.031,3.727-20.11,9.126c-0.004,0.005-0.01,0.007-0.013,0.013 c0,0,0,0.001-0.001,0.002C2.996,14.357,0,21.333,0,29c0,7.369,2.768,14.101,7.312,19.222c0.006,0.009,0.006,0.019,0.013,0.028 c0.018,0.025,0.044,0.037,0.063,0.06c5.106,5.708,12.432,9.385,20.608,9.665l0.001,0.001l0.563,0.015C28.707,57.995,28.853,58,29,58 s0.293-0.005,0.439-0.01l0.563-0.015l0.001-0.001c8.185-0.281,15.519-3.965,20.625-9.685c0.013-0.017,0.034-0.022,0.046-0.04 C50.682,48.241,50.682,48.231,50.688,48.222z M2.025,30h12.003c0.113,4.239,0.941,8.358,2.415,12.217 c-2.844,1.029-5.563,2.409-8.111,4.131C4.585,41.891,2.253,36.21,2.025,30z M8.878,11.023c2.488,1.618,5.137,2.914,7.9,3.882 C15.086,19.012,14.15,23.44,14.028,28H2.025C2.264,21.493,4.812,15.568,8.878,11.023z M55.975,28H43.972 c-0.122-4.56-1.058-8.988-2.75-13.095c2.763-0.968,5.412-2.264,7.9-3.882C53.188,15.568,55.736,21.493,55.975,28z M28,14.963 c-2.891-0.082-5.729-0.513-8.471-1.283C21.556,9.522,24.418,5.769,28,2.644V14.963z M28,16.963V28H16.028 c0.123-4.348,1.035-8.565,2.666-12.475C21.7,16.396,24.821,16.878,28,16.963z M30,16.963c3.179-0.085,6.3-0.566,9.307-1.438 c1.631,3.91,2.543,8.127,2.666,12.475H30V16.963z M30,14.963V2.644c3.582,3.125,6.444,6.878,8.471,11.036 C35.729,14.45,32.891,14.881,30,14.963z M40.409,13.072c-1.921-4.025-4.587-7.692-7.888-10.835 c5.856,0.766,11.125,3.414,15.183,7.318C45.4,11.017,42.956,12.193,40.409,13.072z M17.591,13.072 c-2.547-0.879-4.991-2.055-7.294-3.517c4.057-3.904,9.327-6.552,15.183-7.318C22.178,5.38,19.512,9.047,17.591,13.072z M16.028,30 H28v10.038c-3.307,0.088-6.547,0.604-9.661,1.541C16.932,37.924,16.141,34.019,16.028,30z M28,42.038v13.318 c-3.834-3.345-6.84-7.409-8.884-11.917C21.983,42.594,24.961,42.124,28,42.038z M30,55.356V42.038 c3.039,0.085,6.017,0.556,8.884,1.4C36.84,47.947,33.834,52.011,30,55.356z M30,40.038V30h11.972 c-0.113,4.019-0.904,7.924-2.312,11.58C36.547,40.642,33.307,40.126,30,40.038z M43.972,30h12.003 c-0.228,6.21-2.559,11.891-6.307,16.348c-2.548-1.722-5.267-3.102-8.111-4.131C43.032,38.358,43.859,34.239,43.972,30z M9.691,47.846c2.366-1.572,4.885-2.836,7.517-3.781c1.945,4.36,4.737,8.333,8.271,11.698C19.328,54.958,13.823,52.078,9.691,47.846 z M32.521,55.763c3.534-3.364,6.326-7.337,8.271-11.698c2.632,0.945,5.15,2.209,7.517,3.781 C44.177,52.078,38.672,54.958,32.521,55.763z"/>
			</g>
		</symbol>
		<symbol id="clock-ico-def">
			<g transform="translate(0,0) scale(0.1368,0.1368)">
				<path d="M409.133,109.203c-19.608-33.592-46.205-60.189-79.798-79.796C295.736,9.801,259.058,0,219.273,0 c-39.781,0-76.47,9.801-110.063,29.407c-33.595,19.604-60.192,46.201-79.8,79.796C9.801,142.8,0,179.489,0,219.267 c0,39.78,9.804,76.463,29.407,110.062c19.607,33.592,46.204,60.189,79.799,79.798c33.597,19.605,70.283,29.407,110.063,29.407 s76.47-9.802,110.065-29.407c33.593-19.602,60.189-46.206,79.795-79.798c19.603-33.596,29.403-70.284,29.403-110.062 C438.533,179.485,428.732,142.795,409.133,109.203z M353.742,297.208c-13.894,23.791-32.736,42.64-56.527,56.534 c-23.791,13.894-49.771,20.834-77.945,20.834c-28.167,0-54.149-6.94-77.943-20.834c-23.791-13.895-42.633-32.743-56.527-56.534 c-13.897-23.791-20.843-49.772-20.843-77.941c0-28.171,6.949-54.152,20.843-77.943c13.891-23.791,32.738-42.637,56.527-56.53 c23.791-13.895,49.772-20.84,77.943-20.84c28.173,0,54.154,6.945,77.945,20.84c23.791,13.894,42.634,32.739,56.527,56.53 c13.895,23.791,20.838,49.772,20.838,77.943C374.58,247.436,367.637,273.417,353.742,297.208z"/>
				<path d="M246.68,109.631h-18.274c-2.669,0-4.853,0.859-6.57,2.57c-1.706,1.713-2.565,3.9-2.565,6.565v100.5h-63.953 c-2.667,0-4.853,0.855-6.567,2.564c-1.712,1.712-2.568,3.901-2.568,6.571v18.271c0,2.666,0.856,4.856,2.568,6.567 c1.715,1.711,3.905,2.566,6.567,2.566h91.367c2.662,0,4.853-0.855,6.561-2.566c1.711-1.711,2.573-3.901,2.573-6.567V118.766 c0-2.663-0.862-4.849-2.573-6.565C251.536,110.49,249.346,109.631,246.68,109.631z"/>
			</g>
		</symbol>
		<symbol id="search-ico-def">
			<g transform="translate(-4.5,-661.5) scale(0.69,0.69)">
				<path d="m 40.996337,959.35852 c -18.7066,0 -34,15.29343 -34,34 0,18.70658 15.2934,34.00008 34,34.00008 7.2047,0 13.8928,-2.2666 19.4062,-6.125 l 22.343801,22.375 c 2.343,2.343 6.157,2.343 8.5,0 2.3431,-2.343 2.3431,-6.1569 0,-8.5 l -22.375,-22.3438 c 3.8584,-5.5134 6.125,-12.2016 6.125,-19.40628 0,-18.7066 -15.293501,-34 -34.000001,-34 z m 0,12 c 12.2211,0 22,9.7788 22,22 0,12.22108 -9.7789,22.00008 -22,22.00008 -12.2212,0 -22,-9.779 -22,-22.00008 0,-12.22123 9.7788,-22 22,-22 z"/>
			</g>
		</symbol>
		<symbol id="pref-ico-def" viewBox="-223 25 512 512">
			<g transform="translate(65,0) scale(-0.99,0.99)">
				<path d="M265.2,304.1h-18.6c-5,0-10.9-4.5-12.8-9.9c-1.8-5-3.9-10-6.2-14.8c-2.5-5.1-1.6-12.4,2-16l13.2-13.2 c9.3-9.3,9.3-24.3,0-33.6l-21.5-21.5c-4.5-4.5-10.5-7-16.8-7c-6.3,0-12.3,2.5-16.8,7l-13.2,13.2c-2.1,2.1-5.7,3.4-9.4,3.4 c-2.4,0-4.6-0.5-6.5-1.4c-4.8-2.3-9.8-4.4-14.8-6.2c-5.4-1.9-9.9-7.8-9.9-12.8v-18.6c0-13.1-10.7-23.8-23.8-23.8H79.8 c-13.1,0-23.8,10.7-23.8,23.8v18.6c0,5-4.5,10.9-9.9,12.8c-5,1.8-10,3.9-14.8,6.2c-1.9,0.9-4.2,1.4-6.5,1.4 c-3.8,0-7.4-1.3-9.5-3.4L2.2,195.1c-4.5-4.5-10.5-7-16.8-7c-6.3,0-12.3,2.5-16.8,7l-21.5,21.5c-4.5,4.5-7,10.4-7,16.8 c0,6.3,2.5,12.3,7,16.8l13.2,13.2c3.6,3.6,4.5,10.9,2,16c-2.3,4.8-4.4,9.8-6.2,14.8c-1.9,5.4-7.8,9.9-12.8,9.9h-18.6 c-13.1,0-23.8,10.7-23.8,23.8v30.4c0,13.1,10.7,23.8,23.8,23.8h18.6c5,0,10.9,4.5,12.8,9.9c1.8,5,3.8,9.9,6.2,14.8 c2.5,5.1,1.6,12.4-2,16l-13.2,13.2c-9.3,9.3-9.3,24.3,0,33.6l21.5,21.5c4.5,4.5,10.5,7,16.8,7s12.3-2.5,16.8-7l13.2-13.2 c2.1-2.1,5.7-3.4,9.5-3.4c2.4,0,4.6,0.5,6.5,1.4c4.8,2.3,9.8,4.4,14.8,6.2c5.4,1.9,9.9,7.8,9.9,12.8v18.6 c0,13.1,10.7,23.8,23.8,23.8h30.4c13.1,0,23.8-10.7,23.8-23.8v-18.6c0-5,4.5-10.9,9.9-12.8c5-1.8,10-3.9,14.8-6.2 c1.9-0.9,4.2-1.4,6.5-1.4c3.8,0,7.4,1.3,9.5,3.4l13.2,13.2c4.5,4.5,10.4,7,16.8,7c6.3,0,12.3-2.5,16.8-7l21.5-21.5 c9.3-9.3,9.3-24.3,0-33.6l-13.2-13.2c-3.6-3.6-4.5-10.9-2-16c2.3-4.8,4.4-9.8,6.2-14.8c1.9-5.4,7.8-9.9,12.8-9.9h18.6 c13.1,0,23.8-10.7,23.8-23.8v-30.4C289,314.7,278.3,304.1,265.2,304.1z M164.6,343c0,38.4-31.2,69.6-69.6,69.6 c-38.4,0-69.6-31.2-69.6-69.6c0-38.4,31.2-69.6,69.6-69.6C133.4,273.4,164.6,304.6,164.6,343z"/>
				<path d="M-48.9,151.7c0.4-1.3,2-2.3,2.7-2.3h9.3c8.7,0,15.8-7.1,15.8-15.8v-15.2c0-8.7-7.1-15.8-15.8-15.8h-9.3 c-0.7,0-2.2-1.1-2.7-2.3c-0.9-2.6-2-5.3-3.3-7.8c-0.6-1.2-0.3-3,0.2-3.5l6.6-6.6c6.2-6.2,6.2-16.2,0-22.4L-56,49.2 c-3-3-7-4.6-11.2-4.6c-4.2,0-8.2,1.6-11.2,4.6l-6.6,6.6c-0.2,0.2-0.9,0.5-1.9,0.5c-0.6,0-1.1-0.1-1.5-0.3 c-2.5-1.2-5.2-2.3-7.8-3.3c-1.3-0.4-2.3-2-2.3-2.7v-9.3c0-8.7-7.1-15.8-15.8-15.8h-15.2c-8.7,0-15.8,7.1-15.8,15.8v9.3 c0,0.7-1.1,2.2-2.3,2.7c-2.6,0.9-5.3,2-7.8,3.3c-0.4,0.2-1,0.3-1.5,0.3c-1,0-1.7-0.3-1.9-0.5l-6.6-6.6c-3-3-7-4.6-11.2-4.6 s-8.2,1.6-11.2,4.6l-10.7,10.7c-6.2,6.2-6.2,16.2,0,22.4l6.6,6.6c0.5,0.5,0.8,2.3,0.2,3.5c-1.2,2.5-2.3,5.2-3.3,7.8 c-0.4,1.3-2,2.3-2.7,2.3h-9.3c-8.7,0-15.8,7.1-15.8,15.8v15.2c0,8.7,7.1,15.8,15.8,15.8h9.3c0.7,0,2.2,1.1,2.7,2.3 c0.9,2.6,2,5.3,3.3,7.8c0.6,1.2,0.3,3-0.2,3.5l-6.6,6.6c-3,3-4.6,7-4.6,11.2c0,4.2,1.6,8.2,4.6,11.2l10.7,10.7c3,3,7,4.6,11.2,4.6 c4.2,0,8.2-1.6,11.2-4.6l6.6-6.6c0.2-0.2,0.9-0.5,1.9-0.5c0.6,0,1.1,0.1,1.5,0.3c2.5,1.2,5.2,2.3,7.8,3.3c1.3,0.4,2.3,2,2.3,2.7 v9.3c0,8.7,7.1,15.8,15.8,15.8h15.2c8.7,0,15.8-7.1,15.8-15.8v-9.3c0-0.7,1.1-2.2,2.3-2.7c2.6-0.9,5.2-2,7.8-3.3 c0.4-0.2,1-0.3,1.5-0.3c1,0,1.7,0.3,1.9,0.5l6.6,6.6c3,3,7,4.6,11.2,4.6s8.2-1.6,11.2-4.6l10.7-10.7c6.2-6.2,6.2-16.2,0-22.4 l-6.6-6.6c-0.5-0.5-0.8-2.3-0.2-3.5C-50.9,156.9-49.8,154.3-48.9,151.7z M-91.2,125.9c0,17-13.8,30.8-30.8,30.8 c-17,0-30.8-13.8-30.8-30.8s13.8-30.8,30.8-30.8C-105,95.1-91.2,108.9-91.2,125.9z"/>
			</g>
		</symbol>
		<symbol id="quote-ico-def" viewBox="0 0 18.4 18.5">
			<g transform="scale(0.985,0.985)">
				<path d="M1.1,16.9C0.4,15.8,0,14.4,0,12.7c0-1.4,0.4-3.2,1.2-5.2c0.8-2,1.7-3.8,2.8-5.3C5,0.7,6,0,6.9,0 c0.5,0,1,0.2,1.3,0.6C8.5,0.9,8.7,1.4,8.7,2c0,0.3-0.1,0.5-0.2,0.9C7.5,5.1,7,7.1,7,8.6c0,0.8,0.2,1.8,0.5,3.1 c0.3,1.4,0.4,2.4,0.4,3c0,1.1-0.4,1.9-1.1,2.7c-0.8,0.7-1.7,1.1-2.7,1.1C2.8,18.5,1.8,17.9,1.1,16.9z M10.8,16.9 c-0.7-1.1-1.1-2.4-1.1-4.1c0-1.4,0.4-3.2,1.2-5.2c0.8-2,1.7-3.8,2.8-5.3c1.1-1.5,2-2.2,2.9-2.2c0.5,0,1,0.2,1.3,0.6 c0.3,0.4,0.5,0.8,0.5,1.4c0,0.3-0.1,0.5-0.2,0.9c-1,2.3-1.5,4.2-1.5,5.8c0,0.8,0.2,1.8,0.5,3.1c0.3,1.4,0.4,2.4,0.4,3 c0,1.1-0.4,1.9-1.1,2.7c-0.8,0.7-1.7,1.1-2.7,1.1C12.5,18.5,11.5,17.9,10.8,16.9z"/>
			</g>
		</symbol>
		<symbol id="quote2-ico-def">
			<g transform="translate(60,0) scale(-1,1)">
				<use href="#quote-ico-def" x="0" y="0" />
			</g>
		</symbol>
	</defs>
	<use id="drop-ico" style="fill:#1B75BB;" class="sprite" href="#drop-ico-def" x="0" y="0" />
	<use id="drop-ico-white" class="sprite white" href="#drop-ico-def" x="0" y="0" />
	<use id="arrow-down-ico" class="sprite" href="#arrow-down-ico-def" x="0" y="0" />
	<use id="location-ico-grey" class="sprite grey" href="#location-ico-def" x="0" y="0" />
	<use id="phone-ico-grey" class="sprite grey" href="#phone-ico-def" x="0" y="0" />
	<use id="map-ico-grey" class="sprite grey" href="#map-ico-def" x="0" y="0" />
	<use id="map-ico-blue" class="sprite blue" href="#map-ico-def" x="0" y="0" />
	<use id="web-ico-grey" class="sprite grey" href="#web-ico-def" x="0" y="0" />
	<use id="web-ico-blue" class="sprite blue" href="#web-ico-def" x="0" y="0" />
	<use id="clock-ico-grey" class="sprite grey" href="#clock-ico-def" x="0" y="0" />
	<use id="clock-ico-blue" class="sprite blue" href="#clock-ico-def" x="0" y="0" />
	<use id="search-ico-blue" class="sprite grey" href="#search-ico-def" x="0" y="0" />
	<use id="pref-ico-white" class="sprite white" href="#pref-ico-def" x="0" y="0" />
	<use id="quote-ico-blue" class="sprite blue" href="#quote-ico-def" x="0" y="0" />
	<use id="quote2-ico-blue" class="sprite blue" href="#quote2-ico-def" x="0" y="0" />
</svg>